<svg width="38" height="38" viewBox="0 0 38 38" fill="none" xmlns="http://www.w3.org/2000/svg">
<g filter="url(#filter0_d_143701_509)">
<path d="M28.5002 9.49935H25.3335C25.3335 6.00018 22.4993 3.16602 19.0002 3.16602C15.501 3.16602 12.6668 6.00018 12.6668 9.49935H9.50016C7.7585 9.49935 6.3335 10.9243 6.3335 12.666V31.666C6.3335 33.4077 7.7585 34.8327 9.50016 34.8327H28.5002C30.2418 34.8327 31.6668 33.4077 31.6668 31.666V12.666C31.6668 10.9243 30.2418 9.49935 28.5002 9.49935ZM19.0002 6.33268C20.7418 6.33268 22.1668 7.75768 22.1668 9.49935H15.8335C15.8335 7.75768 17.2585 6.33268 19.0002 6.33268ZM28.5002 31.666H9.50016V12.666H12.6668V15.8327C12.6668 16.7035 13.3793 17.416 14.2502 17.416C15.121 17.416 15.8335 16.7035 15.8335 15.8327V12.666H22.1668V15.8327C22.1668 16.7035 22.8793 17.416 23.7502 17.416C24.621 17.416 25.3335 16.7035 25.3335 15.8327V12.666H28.5002V31.666Z" fill="#002F52"/>
</g>
<defs>
<filter id="filter0_d_143701_509" x="2.3335" y="3.16602" width="33.3335" height="39.666" filterUnits="userSpaceOnUse" color-interpolation-filters="sRGB">
<feFlood flood-opacity="0" result="BackgroundImageFix"/>
<feColorMatrix in="SourceAlpha" type="matrix" values="0 0 0 0 0 0 0 0 0 0 0 0 0 0 0 0 0 0 127 0" result="hardAlpha"/>
<feOffset dy="4"/>
<feGaussianBlur stdDeviation="2"/>
<feComposite in2="hardAlpha" operator="out"/>
<feColorMatrix type="matrix" values="0 0 0 0 0 0 0 0 0 0 0 0 0 0 0 0 0 0 0.25 0"/>
<feBlend mode="normal" in2="BackgroundImageFix" result="effect1_dropShadow_143701_509"/>
<feBlend mode="normal" in="SourceGraphic" in2="effect1_dropShadow_143701_509" result="shape"/>
</filter>
</defs>
</svg>
